<?xml version="1.0" encoding="utf-8"?>
<!-- Generator: Adobe Illustrator 14.0.0, SVG Export Plug-In . SVG Version: 6.00 Build 43363)  -->
<!DOCTYPE svg PUBLIC "-//W3C//DTD SVG 1.1//EN" "http://www.w3.org/Graphics/SVG/1.1/DTD/svg11.dtd">
<svg version="1.1"
	 id="svg1328" sodipodi:version="0.32" inkscape:version="0.46" sodipodi:docname="battery-caution.svg" sodipodi:docbase="/home/garrett/Source/tango-icon-theme/scalable/status" inkscape:output_extension="org.inkscape.output.svg.inkscape" xmlns:dc="http://purl.org/dc/elements/1.1/" xmlns:cc="http://creativecommons.org/ns#" xmlns:rdf="http://www.w3.org/1999/02/22-rdf-syntax-ns#" xmlns:svg="http://www.w3.org/2000/svg" xmlns:sodipodi="http://sodipodi.sourceforge.net/DTD/sodipodi-0.dtd" xmlns:inkscape="http://www.inkscape.org/namespaces/inkscape"
	 xmlns="http://www.w3.org/2000/svg" xmlns:xlink="http://www.w3.org/1999/xlink" x="0px" y="0px" width="48px" height="48px"
	 viewBox="0 0 48 48" enable-background="new 0 0 48 48" xml:space="preserve">
<defs>
	
	
		<inkscape:perspective  id="perspective84" inkscape:persp3d-origin="24 : 16 : 1" inkscape:vp_z="48 : 24 : 1" inkscape:vp_y="0 : 1000 : 0" inkscape:vp_x="0 : 24 : 1" sodipodi:type="inkscape:persp3d">
		</inkscape:perspective>
</defs>
<sodipodi:namedview  fill="#cc0000" stroke="#a40000" id="base" inkscape:showpageshadow="false" inkscape:window-y="30" inkscape:window-x="0" inkscape:window-height="818" inkscape:window-width="1121" inkscape:document-units="px" inkscape:grid-bbox="true" inkscape:current-layer="layer1" inkscape:pageshadow="2" inkscape:pageopacity="0.0" inkscape:cx="11.957522" inkscape:zoom="13.452381" borderopacity="0.25490196" bordercolor="#666666" showgrid="true" pagecolor="#ffffff" inkscape:cy="24">
	
		<inkscape:grid  type="xygrid" color="#0000ff" id="GridFromPre046Settings" originy="0px" originx="0px" opacity="0.2" empspacing="4" empopacity="0.4" empcolor="#0000ff" spacingx="1px" spacingy="1px">
		</inkscape:grid>
</sodipodi:namedview>
<g>
	
		<radialGradient id="path3366_2_" cx="5.7627" cy="-292.3179" r="10.5918" gradientTransform="matrix(1.0279 0 0 -0.5756 11.3649 -146.7203)" gradientUnits="userSpaceOnUse">
		<stop  offset="0" style="stop-color:#000000"/>
		<stop  offset="1" style="stop-color:#000000;stop-opacity:0"/>
	</radialGradient>
	
		<path id="path3366" sodipodi:type="arc" inkscape:r_cx="true" inkscape:r_cy="true" sodipodi:ry="8.5714283" sodipodi:rx="17.142857" sodipodi:cy="40" sodipodi:cx="23.857143" fill="url(#path3366_2_)" d="
		M28.176,21.547c0,3.367-4.875,6.096-10.887,6.096S6.401,24.914,6.401,21.547l0,0c0-3.369,4.875-6.098,10.888-6.098
		S28.176,18.178,28.176,21.547L28.176,21.547z"/>
	<g id="g4015" transform="matrix(1.008529,0,0,0.982935,-0.172022,0.592473)" inkscape:r_cx="true" inkscape:r_cy="true">
		
			<linearGradient id="path3068_2_" gradientUnits="userSpaceOnUse" x1="2.3033" y1="-5.2167" x2="20.5443" y2="-5.2167" gradientTransform="matrix(1.0085 0 0 -0.9829 5.4913 9.5679)">
			<stop  offset="0" style="stop-color:#7E807A"/>
			<stop  offset="0.25" style="stop-color:#BABBB8"/>
			<stop  offset="0.5" style="stop-color:#A5A6A3"/>
			<stop  offset="1" style="stop-color:#333432"/>
		</linearGradient>
		
			<linearGradient id="path3068_3_" gradientUnits="userSpaceOnUse" x1="-254.5916" y1="404.4521" x2="-254.4488" y2="400.8806" gradientTransform="matrix(1 0 0 1 -8.367406e-006 -1.987216e-005)">
			<stop  offset="0" style="stop-color:#7D4B01"/>
			<stop  offset="1" style="stop-color:#535353"/>
		</linearGradient>
		
			<path id="path3068" sodipodi:nodetypes="csszssz" inkscape:r_cx="true" inkscape:r_cy="true" fill="url(#path3068_2_)" stroke="url(#path3068_3_)" stroke-width="1.0044" stroke-miterlimit="10" d="
			M16.855,3.691c-4.855,0-8.804,1.732-8.804,3.862c0,0.153,0,14.13,0,14.289c0,2.13,3.949,3.859,8.804,3.859
			c4.857,0,8.962-1.729,8.962-3.859c0-0.126,0-14.163,0-14.289C25.817,5.423,21.712,3.691,16.855,3.691z"/>
		
			<linearGradient id="path4152_2_" gradientUnits="userSpaceOnUse" x1="2.8014" y1="0.0758" x2="20.0387" y2="0.0758" gradientTransform="matrix(1.0085 0 0 -0.9829 5.4913 9.5679)">
			<stop  offset="0" style="stop-color:#F79403"/>
			<stop  offset="0.1869" style="stop-color:#FDB343"/>
			<stop  offset="0.4301" style="stop-color:#FDB74F"/>
			<stop  offset="1" style="stop-color:#8F5601"/>
		</linearGradient>
		<path id="path4152" sodipodi:nodetypes="csszssz" inkscape:r_cx="true" inkscape:r_cy="true" fill="url(#path4152_2_)" d="
			M16.859,3.85c-4.712,0-8.543,1.68-8.543,3.747c0,0.148,0,3.898,0,4.052c0,2.067,3.831,3.49,8.543,3.49
			c4.712,0,8.694-1.423,8.694-3.49c0-0.122,0-3.929,0-4.052C25.554,5.53,21.571,3.85,16.859,3.85z"/>
		
			<linearGradient id="path4174_3_" gradientUnits="userSpaceOnUse" x1="-262.4296" y1="412.4409" x2="-241.6203" y2="369.8695" gradientTransform="matrix(1 0 0 1 -8.367406e-006 -1.987216e-005)">
			<stop  offset="0" style="stop-color:#FFFFFF"/>
			<stop  offset="1" style="stop-color:#FFFFFF;stop-opacity:0"/>
		</linearGradient>
		
			<path id="path4174_1_" sodipodi:nodetypes="csszssz" inkscape:r_cx="true" inkscape:r_cy="true" opacity="0.5443" fill="none" stroke="url(#path4174_3_)" stroke-width="1.0044" stroke-miterlimit="10" enable-background="new    " d="
			M25.217,7.774c0-1.987-3.828-3.601-8.356-3.601c-4.526,0-8.208,1.614-8.208,3.601c0,0.142,0,13.523,0,13.671
			c0,1.986,3.682,3.601,8.208,3.601c4.529,0,8.356-1.615,8.356-3.601"/>
		
			<linearGradient id="path3364_2_" gradientUnits="userSpaceOnUse" x1="-255.6476" y1="409.8767" x2="-255.6476" y2="413.1168" gradientTransform="matrix(1 0 0 1 -8.367406e-006 -1.987216e-005)">
			<stop  offset="0" style="stop-color:#FFFFFF"/>
			<stop  offset="1" style="stop-color:#E7E6AE"/>
		</linearGradient>
		
			<path id="path3364" sodipodi:type="arc" inkscape:r_cx="true" inkscape:r_cy="true" sodipodi:ry="5.5" sodipodi:rx="12.857142" sodipodi:cy="14.071428" sodipodi:cx="24" fill="#FED496" stroke="url(#path3364_2_)" stroke-width="1.0093" stroke-miterlimit="10" d="
			M25.133,7.501c0,1.792-3.687,3.244-8.239,3.244s-8.24-1.452-8.24-3.244c0-1.791,3.689-3.245,8.24-3.245S25.133,5.71,25.133,7.501z
			"/>
		
			<linearGradient id="path6922_2_" gradientUnits="userSpaceOnUse" x1="7.259" y1="0.3252" x2="7.0825" y2="-6.1623" gradientTransform="matrix(1.0085 0 0 -0.9829 5.348 12.2106)">
			<stop  offset="0" style="stop-color:#FFFFFF"/>
			<stop  offset="1" style="stop-color:#FFFFFF;stop-opacity:0"/>
		</linearGradient>
		
			<path id="path6922" sodipodi:nodetypes="ccccccc" inkscape:r_cx="true" inkscape:r_cy="true" opacity="0.4937" fill="url(#path6922_2_)" enable-background="new    " d="
			M10.496,10.37l0.221,10.372l2.824,0.792l-0.089-10.326c0,0,1.281,0,3.355-0.133c-3.222-0.144-6.91-1.529-8.164-2.427
			C9.518,9.941,10.496,10.37,10.496,10.37z"/>
		<text transform="matrix(1.0302 0 0 1.0174 12.3344 21.118)" font-family="'Helvetica63-ExtendedMedium'" font-size="4.3746">SQL</text>
	</g>
</g>
<g>
	
		<radialGradient id="path3366_3_" cx="19.5811" cy="-318.4893" r="12.4072" gradientTransform="matrix(1.0279 0 0 -0.5756 11.3649 -146.7203)" gradientUnits="userSpaceOnUse">
		<stop  offset="0" style="stop-color:#000000"/>
		<stop  offset="1" style="stop-color:#000000;stop-opacity:0"/>
	</radialGradient>
	
		<path id="path3366_1_" sodipodi:type="arc" inkscape:r_cx="true" inkscape:r_cy="true" sodipodi:ry="8.5714283" sodipodi:rx="17.142857" sodipodi:cy="40" sodipodi:cx="23.857143" fill="url(#path3366_3_)" d="
		M44.246,36.611c0,3.944-5.709,7.142-12.753,7.142s-12.754-3.197-12.754-7.142l0,0c0-3.945,5.71-7.143,12.754-7.143
		S44.246,32.666,44.246,36.611L44.246,36.611z"/>
	<g id="g4015_1_" transform="matrix(1.008529,0,0,0.982935,-0.172022,0.592473)" inkscape:r_cx="true" inkscape:r_cy="true">
		
			<linearGradient id="path3068_4_" gradientUnits="userSpaceOnUse" x1="14.654" y1="-19.6554" x2="36.0219" y2="-19.6554" gradientTransform="matrix(1.0085 0 0 -0.9829 5.4913 9.5679)">
			<stop  offset="0" style="stop-color:#7E807A"/>
			<stop  offset="0.25" style="stop-color:#BABBB8"/>
			<stop  offset="0.5" style="stop-color:#A5A6A3"/>
			<stop  offset="1" style="stop-color:#333432"/>
		</linearGradient>
		
			<linearGradient id="path3068_5_" gradientUnits="userSpaceOnUse" x1="-254.5916" y1="404.4521" x2="-254.4488" y2="400.8806" gradientTransform="matrix(1 0 0 1 -8.367406e-006 -1.987216e-005)">
			<stop  offset="0" style="stop-color:#7D4B01"/>
			<stop  offset="1" style="stop-color:#535353"/>
		</linearGradient>
		
			<path id="path3068_1_" sodipodi:nodetypes="csszssz" inkscape:r_cx="true" inkscape:r_cy="true" fill="url(#path3068_4_)" stroke="url(#path3068_5_)" stroke-width="1.0044" stroke-miterlimit="10" d="
			M30.861,15.997c-5.687,0-10.312,2.028-10.312,4.523c0,0.179,0,16.552,0,16.739c0,2.495,4.626,4.521,10.312,4.521
			c5.69,0,10.498-2.027,10.498-4.521c0-0.149,0-16.591,0-16.739C41.359,18.025,36.551,15.997,30.861,15.997z"/>
		
			<linearGradient id="path4152_3_" gradientUnits="userSpaceOnUse" x1="15.2379" y1="-13.4559" x2="35.4298" y2="-13.4559" gradientTransform="matrix(1.0085 0 0 -0.9829 5.4913 9.5679)">
			<stop  offset="0" style="stop-color:#F79403"/>
			<stop  offset="0.1869" style="stop-color:#FDB343"/>
			<stop  offset="0.4301" style="stop-color:#FDB74F"/>
			<stop  offset="1" style="stop-color:#8F5601"/>
		</linearGradient>
		<path id="path4152_1_" sodipodi:nodetypes="csszssz" inkscape:r_cx="true" inkscape:r_cy="true" fill="url(#path4152_3_)" d="
			M30.865,16.183c-5.519,0-10.006,1.967-10.006,4.389c0,0.173,0,4.566,0,4.745c0,2.422,4.487,4.089,10.006,4.089
			c5.521,0,10.187-1.667,10.187-4.089c0-0.142,0-4.602,0-4.745C41.051,18.15,36.386,16.183,30.865,16.183z"/>
		
			<linearGradient id="path4174_4_" gradientUnits="userSpaceOnUse" x1="-262.4296" y1="412.4409" x2="-241.6203" y2="369.8695" gradientTransform="matrix(1 0 0 1 -8.367406e-006 -1.987216e-005)">
			<stop  offset="0" style="stop-color:#FFFFFF"/>
			<stop  offset="1" style="stop-color:#FFFFFF;stop-opacity:0"/>
		</linearGradient>
		
			<path id="path4174_2_" sodipodi:nodetypes="csszssz" inkscape:r_cx="true" inkscape:r_cy="true" opacity="0.5443" fill="none" stroke="url(#path4174_4_)" stroke-width="1.0044" stroke-miterlimit="10" enable-background="new    " d="
			M40.655,20.78c0-2.328-4.483-4.218-9.788-4.218c-5.302,0-9.615,1.89-9.615,4.218c0,0.166,0,15.841,0,16.014
			c0,2.326,4.313,4.216,9.615,4.216c5.304,0,9.788-1.891,9.788-4.216"/>
		
			<linearGradient id="path3364_3_" gradientUnits="userSpaceOnUse" x1="-255.6476" y1="409.8767" x2="-255.6476" y2="413.1168" gradientTransform="matrix(1 0 0 1 -8.367406e-006 -1.987216e-005)">
			<stop  offset="0" style="stop-color:#FFFFFF"/>
			<stop  offset="1" style="stop-color:#E7E6AE"/>
		</linearGradient>
		
			<path id="path3364_1_" sodipodi:type="arc" inkscape:r_cx="true" inkscape:r_cy="true" sodipodi:ry="5.5" sodipodi:rx="12.857142" sodipodi:cy="14.071428" sodipodi:cx="24" fill="#FED496" stroke="url(#path3364_3_)" stroke-width="1.0093" stroke-miterlimit="10" d="
			M40.559,20.46c0,2.098-4.32,3.799-9.651,3.799s-9.653-1.7-9.653-3.799c0-2.099,4.321-3.802,9.653-3.802
			S40.559,18.361,40.559,20.46z"/>
		
			<linearGradient id="path6922_3_" gradientUnits="userSpaceOnUse" x1="20.4357" y1="-13.6233" x2="20.2289" y2="-21.2225" gradientTransform="matrix(1.0085 0 0 -0.9829 5.348 12.2106)">
			<stop  offset="0" style="stop-color:#FFFFFF"/>
			<stop  offset="1" style="stop-color:#FFFFFF;stop-opacity:0"/>
		</linearGradient>
		
			<path id="path6922_1_" sodipodi:nodetypes="ccccccc" inkscape:r_cx="true" inkscape:r_cy="true" opacity="0.4937" fill="url(#path6922_3_)" enable-background="new    " d="
			M23.411,23.82l0.26,12.15l3.307,0.929l-0.104-12.096c0,0,1.5,0,3.93-0.156c-3.775-0.168-8.095-1.79-9.564-2.843
			C22.266,23.317,23.411,23.82,23.411,23.82z"/>
		<text transform="matrix(1.0302 0 0 1.0174 25.5653 36.4107)" font-family="'Helvetica63-ExtendedMedium'" font-size="5.1244">SQL</text>
	</g>
</g>
</svg>
