<?xml version="1.0" encoding="utf-8"?>
<!-- Generator: Adobe Illustrator 14.0.0, SVG Export Plug-In . SVG Version: 6.00 Build 43363)  -->
<!DOCTYPE svg PUBLIC "-//W3C//DTD SVG 1.1//EN" "http://www.w3.org/Graphics/SVG/1.1/DTD/svg11.dtd">
<svg version="1.1"
	 id="svg1328" sodipodi:version="0.32" inkscape:version="0.46" sodipodi:docname="battery-caution.svg" sodipodi:docbase="/home/garrett/Source/tango-icon-theme/scalable/status" inkscape:output_extension="org.inkscape.output.svg.inkscape" xmlns:dc="http://purl.org/dc/elements/1.1/" xmlns:cc="http://creativecommons.org/ns#" xmlns:rdf="http://www.w3.org/1999/02/22-rdf-syntax-ns#" xmlns:svg="http://www.w3.org/2000/svg" xmlns:sodipodi="http://sodipodi.sourceforge.net/DTD/sodipodi-0.dtd" xmlns:inkscape="http://www.inkscape.org/namespaces/inkscape"
	 xmlns="http://www.w3.org/2000/svg" xmlns:xlink="http://www.w3.org/1999/xlink" x="0px" y="0px" width="48px" height="48px"
	 viewBox="0 0 48 48" enable-background="new 0 0 48 48" xml:space="preserve">
<defs>
	
	
		<inkscape:perspective  id="perspective84" inkscape:persp3d-origin="24 : 16 : 1" inkscape:vp_z="48 : 24 : 1" inkscape:vp_y="0 : 1000 : 0" inkscape:vp_x="0 : 24 : 1" sodipodi:type="inkscape:persp3d">
		</inkscape:perspective>
</defs>
<sodipodi:namedview  fill="#cc0000" stroke="#a40000" id="base" inkscape:showpageshadow="false" inkscape:window-y="30" inkscape:window-x="0" inkscape:window-height="818" inkscape:window-width="1121" inkscape:document-units="px" inkscape:grid-bbox="true" inkscape:current-layer="layer1" inkscape:pageshadow="2" inkscape:pageopacity="0.0" inkscape:cx="11.957522" inkscape:zoom="13.452381" borderopacity="0.25490196" bordercolor="#666666" showgrid="true" pagecolor="#ffffff" inkscape:cy="24">
	
		<inkscape:grid  type="xygrid" color="#0000ff" id="GridFromPre046Settings" originy="0px" originx="0px" opacity="0.2" empspacing="4" empopacity="0.4" empcolor="#0000ff" spacingx="1px" spacingy="1px">
		</inkscape:grid>
</sodipodi:namedview>
<radialGradient id="path3366_1_" cx="13.1411" cy="-309.3984" r="14.2156" gradientTransform="matrix(1.0279 0 0 -0.5756 11.3649 -146.7203)" gradientUnits="userSpaceOnUse">
	<stop  offset="0" style="stop-color:#000000"/>
	<stop  offset="1" style="stop-color:#000000;stop-opacity:0"/>
</radialGradient>
<path id="path3366" sodipodi:type="arc" inkscape:r_cx="true" inkscape:r_cy="true" sodipodi:ry="8.5714283" sodipodi:rx="17.142857" sodipodi:cy="40" sodipodi:cx="23.857143" opacity="0.59" fill="url(#path3366_1_)" d="
	M39.485,31.379c0,4.52-6.542,8.182-14.612,8.182c-8.071,0-14.613-3.662-14.613-8.182l0,0c0-4.521,6.542-8.184,14.613-8.184
	C32.943,23.195,39.485,26.858,39.485,31.379L39.485,31.379z"/>
<linearGradient id="SVGID_1_" gradientUnits="userSpaceOnUse" x1="5.3828" y1="22.6523" x2="42.6729" y2="22.6523">
	<stop  offset="0" style="stop-color:#B0CBF0"/>
	<stop  offset="1" style="stop-color:#6699DA"/>
</linearGradient>
<rect x="5.383" y="10.813" fill="url(#SVGID_1_)" stroke="#355770" stroke-linejoin="bevel" stroke-miterlimit="10" width="37.29" height="23.678"/>
<g>
	<image overflow="visible" opacity="0.68" width="43" height="24" xlink:href="589C0CCD.png"  transform="matrix(1 0 0 1 3 10)">
	</image>
	<g>
		<g>
			<path fill="#FFFFFF" d="M9.099,16.599h1.05v4.779h4.829v-4.779h1.063V27.82h-1.063v-5.408h-4.829v5.408h-1.05V16.599z"/>
			<path fill="#FFFFFF" d="M24.189,16.599v1.049h-3.018V27.82h-1.037V17.648h-3.031v-1.049H24.189z"/>
			<path fill="#FFFFFF" d="M31.525,16.599v1.049h-3.019V27.82H27.47V17.648h-3.03v-1.049H31.525z"/>
			<path fill="#FFFFFF" d="M32.588,16.599h3.923c0.771,0,1.389,0.288,1.857,0.862c0.468,0.574,0.702,1.336,0.702,2.285
				c0,0.969-0.224,1.743-0.67,2.322c-0.446,0.58-1.076,0.869-1.89,0.869h-2.887v4.884h-1.036V16.599z M36.104,21.918
				c1.286,0,1.929-0.719,1.929-2.158c0-1.408-0.643-2.112-1.929-2.112h-2.48v4.27H36.104z"/>
		</g>
	</g>
</g>
</svg>
